<svg width="169" height="37" viewBox="0 0 169 37" fill="none" xmlns="http://www.w3.org/2000/svg">
<g id="Golden_Ratio">
<path id="Vector" d="M65.9995 31.1374L64.2128 29.4293C62.0679 30.5187 59.6364 31.1374 57.0617 31.1374C52.7808 31.1374 48.894 29.4382 46.0729 26.6855C43.2295 23.9149 41.4741 20.0907 41.4741 15.863C41.4741 11.6353 43.2339 7.81111 46.0729 5.04047C48.894 2.29225 52.7808 0.588623 57.0617 0.588623C61.3425 0.588623 65.2293 2.28777 68.0504 5.04047C70.8894 7.81111 72.6492 11.6353 72.6492 15.863C72.6492 19.6693 71.2163 23.1527 68.8564 25.8292L74.4 31.1329H65.9995V31.1374ZM59.6588 25.0716L52.736 18.4498H61.1365L64.7278 21.8885C66.1025 20.2476 66.9309 18.1539 66.9309 15.8675C66.9309 13.2358 65.8383 10.8597 64.074 9.13815C62.2873 7.39865 59.8066 6.31819 57.0572 6.31819C54.3077 6.31819 51.827 7.39417 50.0403 9.13815C48.276 10.8597 47.1834 13.2403 47.1834 15.8675C47.1834 18.4946 48.276 20.8752 50.0403 22.5968C51.827 24.3363 54.3077 25.4168 57.0572 25.4168C57.9572 25.4168 58.8304 25.2912 59.6588 25.0716Z" fill="#262626"/>
<path id="Vector_2" d="M96.7 14.4598H102.414V31.0567H96.7V30.0704C95.3879 30.7025 93.9147 31.0567 92.3654 31.0567H88.6308C83.7499 31.0567 80.6646 27.887 79.3437 23.8252C78.8735 22.3816 78.6406 20.8349 78.6406 19.3061C78.6406 17.7773 78.8735 16.2351 79.3437 14.7915C80.6646 10.7342 83.7499 7.56006 88.6308 7.56006H95.2222V13.2807H88.6308C86.6605 13.2807 85.3664 14.7153 84.7664 16.5534C84.4888 17.4052 84.3544 18.3467 84.3544 19.3061C84.3544 20.2655 84.4932 21.2115 84.7664 22.0588C85.3619 23.897 86.6605 25.3316 88.6308 25.3316H92.3654C93.5565 25.3316 94.6357 24.8429 95.4238 24.0539C96.2119 23.2648 96.7 22.1844 96.7 20.9918V14.4553V14.4598ZM102.414 10.0124C102.414 11.3663 101.317 12.4647 99.9643 12.4647C98.612 12.4647 97.5194 11.3663 97.5194 10.0124C97.5194 8.65845 98.612 7.56454 99.9643 7.56454C101.317 7.56454 102.414 8.66293 102.414 10.0124Z" fill="#262626"/>
<path id="Vector_3" d="M105.92 0.512451H111.634V19.5438C111.634 21.5836 111.943 22.9914 112.525 23.9239C112.995 24.6816 113.738 25.1702 114.701 25.4796L117.415 26.3493L115.673 31.783L112.959 30.9133C110.72 30.1959 108.934 28.9541 107.68 26.9411C106.533 25.103 105.92 22.7 105.92 19.5438V0.512451Z" fill="#262626"/>
<path id="Vector_4" d="M119.21 0.512451H124.924V19.5438C124.924 21.5836 125.238 22.9914 125.815 23.9239C126.286 24.6816 127.029 25.1702 127.992 25.4796L130.705 26.3493L128.963 31.783L126.25 30.9133C124.011 30.1959 122.224 28.9541 120.97 26.9411C119.824 25.103 119.21 22.7 119.21 19.5438V0.512451Z" fill="#262626"/>
<path id="Vector_5" d="M132.223 0.512451H137.937V7.56458H142.988V13.2852H137.937V19.5438C137.937 21.5836 138.246 22.9914 138.828 23.9239C139.298 24.6816 140.041 25.1702 141.004 25.4796L143.718 26.3493L141.976 31.783L139.262 30.9133C137.023 30.1959 135.237 28.9541 133.983 26.9411C132.837 25.103 132.223 22.7 132.223 19.5438V13.2852H129.106V7.56458H132.223V0.512451Z" fill="#262626"/>
<path id="Vector_6" d="M163.286 14.4598H169V31.0567H163.286V30.0704C161.974 30.7025 160.501 31.0567 158.952 31.0567H155.217C150.336 31.0567 147.251 27.887 145.93 23.8252C145.46 22.3816 145.227 20.8349 145.227 19.3061C145.227 17.7773 145.46 16.2351 145.93 14.7915C147.251 10.7342 150.336 7.56006 155.217 7.56006H161.809V13.2807H155.217C153.247 13.2807 151.953 14.7153 151.353 16.5534C151.075 17.4052 150.936 18.3467 150.936 19.3061C150.936 20.2655 151.075 21.2115 151.353 22.0588C151.948 23.897 153.247 25.3316 155.217 25.3316H158.952C160.143 25.3316 161.222 24.8429 162.01 24.0539C162.798 23.2648 163.286 22.1844 163.286 20.9918V14.4553V14.4598ZM169 10.0124C169 11.3663 167.903 12.4647 166.551 12.4647C165.198 12.4647 164.106 11.3663 164.106 10.0124C164.106 8.65845 165.203 7.56454 166.551 7.56454C167.899 7.56454 169 8.66293 169 10.0124Z" fill="#262626"/>
<path id="Vector_7" d="M74.9732 6.06715C74.9016 5.69952 74.7583 5.51571 74.5478 5.51571C73.809 5.51571 73.1821 5.26017 72.6581 4.74908C72.1342 4.23799 71.8745 3.60137 71.8745 2.8437C71.8745 2.08604 72.1342 1.44045 72.6581 0.915913C73.1821 0.391375 73.809 0.131348 74.5478 0.131348C75.2867 0.131348 75.9494 0.391375 76.4733 0.915913C76.9972 1.44045 77.2569 2.08155 77.2569 2.8437C77.2569 3.53412 77.1271 4.31869 76.8674 5.1974C76.6076 6.07611 76.3076 6.88758 75.9763 7.62283L75.1568 7.30004C75.1075 6.84723 75.0493 6.43925 74.9777 6.07163L74.9732 6.06715Z" fill="#262626"/>
<g id="Group">
<path id="Vector_8" d="M21.9237 29.3576C21.9193 27.9633 21.9148 26.5646 21.9148 25.1703C21.9148 24.2378 22.3088 23.7581 23.3074 23.7581C26.2673 23.7625 29.2317 23.7446 32.1915 23.7177C32.6617 23.7177 33.0379 23.3321 33.0334 22.8614C33.011 19.8307 33.002 16.8046 33.0334 13.7739C33.0603 11.0436 31.1348 9.29515 28.5331 9.37136C23.5358 9.52379 18.5295 9.39826 13.5277 9.53276C13.1247 9.54173 12.7486 9.52828 12.3948 9.46999C11.3604 9.29963 11.4634 7.77982 12.5157 7.77533L28.8063 7.68118C29.5451 7.68118 29.9257 6.79799 29.4287 6.25552C28.4301 5.17057 27.4047 4.04977 26.4643 2.86171C25.6986 1.89333 24.8478 1.72745 23.7328 1.73642C16.2682 1.81263 8.79905 1.83953 1.33441 1.88437H0.846321C0.376143 1.89333 0 2.27441 0 2.74515V3.38625C0.0447789 10.7387 0.102991 18.0868 0.111947 25.4393C0.111947 26.3449 0.300019 27.0308 1.01648 27.6495C1.82698 28.3534 2.47627 29.2455 3.25543 29.9897C3.67187 30.3888 4.10622 30.7653 4.56745 31.1554C5.1227 31.6261 5.9735 31.2316 5.96903 30.5053L5.87051 13.7649C5.86603 12.689 7.49151 12.5903 7.56315 13.6663C7.57211 13.7873 7.57659 13.9129 7.57659 14.0474C7.5542 20.297 7.62137 26.5466 7.65719 32.7918V33.2894C7.66167 33.7601 8.04677 34.1367 8.51247 34.1367L21.0953 34.065C21.5655 34.065 21.9417 33.6794 21.9417 33.2087C21.9327 31.9175 21.9282 30.6353 21.9193 29.3576H21.9237Z" fill="url(#paint0_linear_1_25)"/>
<path id="Vector_9" d="M35.0172 26.0131C35.0082 25.2779 34.5112 25.0896 33.8529 25.0941C33.6738 25.0941 33.4902 25.0941 33.3111 25.0941C30.5214 25.1165 27.7272 25.1389 24.933 25.1344C24.0732 25.1344 23.7329 25.5469 23.7329 26.3494C23.7329 27.5509 23.7329 28.7524 23.7419 29.9539C23.7463 31.2944 23.7553 32.6438 23.7643 34.0023C23.7643 34.7151 23.7732 35.4279 23.7777 36.1497C27.5884 36.1273 31.3005 36.1049 35.0799 36.0825C35.062 32.6932 35.0485 29.3531 35.0172 26.0131Z" fill="url(#paint1_linear_1_25)"/>
</g>
</g>
<defs>
<linearGradient id="paint0_linear_1_25" x1="0" y1="17.9388" x2="33.0379" y2="17.9388" gradientUnits="userSpaceOnUse">
<stop stop-color="#55B6C5"/>
<stop offset="0.46" stop-color="#4974CE"/>
<stop offset="1" stop-color="#4774CE"/>
</linearGradient>
<linearGradient id="paint1_linear_1_25" x1="23.7374" y1="30.6174" x2="35.0844" y2="30.6174" gradientUnits="userSpaceOnUse">
<stop stop-color="#55B6C5"/>
<stop offset="0.46" stop-color="#4974CE"/>
<stop offset="1" stop-color="#4774CE"/>
</linearGradient>
</defs>
</svg>
