<svg width="18" height="16" viewBox="0 0 18 16" fill="none" xmlns="http://www.w3.org/2000/svg">
<g id="up-right-arrow (1) 1" clip-path="url(#clip0_1_268)">
<path id="Vector" d="M17.4461 0.681406V11.0315C17.4461 11.4078 17.1191 11.7129 16.7157 11.7129C16.3123 11.7129 15.9852 11.4078 15.9852 11.0315V2.32659L1.5419 15.8005C1.39923 15.9335 1.21234 16 1.02539 16C0.838433 16 0.651546 15.9335 0.508876 15.8005C0.223604 15.5343 0.223604 15.1029 0.508876 14.8368L14.9522 1.36281H5.62093C5.21754 1.36281 4.8905 1.05772 4.8905 0.681406C4.8905 0.305094 5.21754 2.40019e-09 5.62093 2.40019e-09H16.7157C17.1191 -3.12476e-05 17.4461 0.305094 17.4461 0.681406Z" fill="white"/>
</g>
<defs>
<clipPath id="clip0_1_268">
<rect width="17.1512" height="16" fill="white" transform="translate(0.294922)"/>
</clipPath>
</defs>
</svg>
